# xmcd
#
# Track frame offsets:
#	150
#	18406
#	41657
#	60727
#	80599
#	98971
#	116777
#	137182
#	153339
#	174138
#	193815
#	211781
#	230694
#	263893
#
# Disc length: 4673 seconds
#
# Revision: 1
# Processed by: cddbd v1.5.2PL0 Copyright (c) Steve Scherf et al.
# Submitted via: audiograbber 1.83.01
#
DISCID=c1123f0e
DTITLE=Taylor Swift  - ASK - 1561 Top Gal Country Vol 2
DYEAR=1900
DGENRE=
TTITLE0=Taylor Swift - Fearless
TTITLE1=Taylor Swift - Fifteen
TTITLE2=Taylor Swift - Love Story
TTITLE3=Taylor Swift - Hey Stephen
TTITLE4=Taylor Swift - White Horse
TTITLE5=Taylor Swift - You Belong To Me
TTITLE6=Taylor Swift - Breathe
TTITLE7=Taylor Swift - Tell Me Why
TTITLE8=Taylor Swift - You're Not Sorry
TTITLE9=Taylor Swift - The Way I Loved You 
TTITLE10=Taylor Swift - Forever and Always
TTITLE11=Taylor Swift - The Best Day
TTITLE12=Taylor Swift - Change
TTITLE13=Data Track
EXTD=
EXTT0=
EXTT1=
EXTT2=
EXTT3=
EXTT4=
EXTT5=
EXTT6=
EXTT7=
EXTT8=
EXTT9=
EXTT10=
EXTT11=
EXTT12=
EXTT13=
PLAYORDER=
